<svg width="27" height="26" viewBox="0 0 27 26" fill="none" xmlns="http://www.w3.org/2000/svg">
<path fill-rule="evenodd" clip-rule="evenodd" d="M7.434 6.5C6.85936 6.5 6.30826 6.72827 5.90194 7.1346C5.49561 7.54093 5.26733 8.09203 5.26733 8.66667V11.9167C5.26733 12.4913 5.49561 13.0424 5.90194 13.4487C6.30826 13.8551 6.85936 14.0833 7.434 14.0833H10.684C10.684 14.9453 10.3416 15.7719 9.7321 16.3814C9.12261 16.9909 8.29595 17.3333 7.434 17.3333H6.35067C6.06335 17.3333 5.7878 17.4475 5.58464 17.6506C5.38147 17.8538 5.26733 18.1293 5.26733 18.4167C5.26733 18.704 5.38147 18.9795 5.58464 19.1827C5.7878 19.3859 6.06335 19.5 6.35067 19.5H7.434C8.87059 19.5 10.2483 18.9293 11.2642 17.9135C12.28 16.8977 12.8507 15.5199 12.8507 14.0833V8.66667C12.8507 8.09203 12.6224 7.54093 12.2161 7.1346C11.8097 6.72827 11.2586 6.5 10.684 6.5H7.434ZM17.184 6.5C16.6094 6.5 16.0583 6.72827 15.6519 7.1346C15.2456 7.54093 15.0173 8.09203 15.0173 8.66667V11.9167C15.0173 12.4913 15.2456 13.0424 15.6519 13.4487C16.0583 13.8551 16.6094 14.0833 17.184 14.0833H20.434C20.434 14.9453 20.0916 15.7719 19.4821 16.3814C18.8726 16.9909 18.046 17.3333 17.184 17.3333H16.1007C15.8133 17.3333 15.5378 17.4475 15.3346 17.6506C15.1315 17.8538 15.0173 18.1293 15.0173 18.4167C15.0173 18.704 15.1315 18.9795 15.3346 19.1827C15.5378 19.3859 15.8133 19.5 16.1007 19.5H17.184C18.6206 19.5 19.9983 18.9293 21.0142 17.9135C22.03 16.8977 22.6007 15.5199 22.6007 14.0833V8.66667C22.6007 8.09203 22.3724 7.54093 21.9661 7.1346C21.5597 6.72827 21.0086 6.5 20.434 6.5H17.184Z" fill="#0267B1"/>
</svg>
