<svg width="138" height="40" viewBox="0 0 138 40" fill="none" xmlns="http://www.w3.org/2000/svg">
<path d="M132.911 39.6963H5.67864C2.88081 39.6963 0.589355 37.4621 0.589355 34.7342V4.96193C0.589355 2.23404 2.88081 -0.000127792 5.67864 -0.000127792H132.911C135.709 -0.000127792 138 2.23404 138 4.96193V34.7342C138 37.4621 135.709 39.6963 132.911 39.6963Z" fill="black"/>
<path d="M132.911 0.795039C135.267 0.795039 137.184 2.66449 137.184 4.96193V34.7342C137.184 37.0317 135.267 38.9011 132.911 38.9011H5.67864C3.3223 38.9011 1.40491 37.0317 1.40491 34.7342V4.96193C1.40491 2.66449 3.3223 0.795039 5.67864 0.795039H132.911ZM132.911 -0.000127792H5.67864C2.88081 -0.000127792 0.589355 2.23404 0.589355 4.96193V34.7342C0.589355 37.4621 2.88081 39.6963 5.67864 39.6963H132.911C135.709 39.6963 138 37.4621 138 34.7342V4.96193C138 2.23404 135.709 -0.000127792 132.911 -0.000127792Z" fill="#A6A6A6"/>
<path d="M11.2108 7.48132C10.9118 7.78648 10.7388 8.2616 10.7388 8.87689V30.8241C10.7388 31.4393 10.9118 31.9145 11.2108 32.2196L11.2846 32.2866L23.8984 19.9931V19.7029L11.2846 7.40937L11.2108 7.48132Z" fill="url(#paint0_linear_234_475)"/>
<path d="M28.0981 24.0933L23.8982 19.9934V19.7031L28.1032 15.6032L28.1974 15.6565L33.1772 18.4192C34.5984 19.2032 34.5984 20.4933 33.1772 21.2823L28.1974 24.0399L28.0981 24.0933Z" fill="url(#paint1_linear_234_475)"/>
<path d="M28.1975 24.04L23.8983 19.8483L11.2107 32.22C11.6827 32.7038 12.4525 32.7621 13.3278 32.2783L28.1975 24.04Z" fill="url(#paint2_linear_234_475)"/>
<path d="M28.1975 15.6565L13.3278 7.41821C12.4525 6.93937 11.6827 6.99767 11.2107 7.48147L23.8983 19.8481L28.1975 15.6565Z" fill="url(#paint3_linear_234_475)"/>
<path d="M48.8535 10.1661C48.8535 10.9948 48.599 11.6584 48.0977 12.1534C47.5214 12.7402 46.7707 13.0354 45.8508 13.0354C44.9716 13.0354 44.221 12.7352 43.6051 12.1435C42.9881 11.5431 42.6802 10.8062 42.6802 9.92419C42.6802 9.04219 42.9881 8.30533 43.6051 7.70988C44.221 7.11319 44.9716 6.81299 45.8508 6.81299C46.2885 6.81299 46.7058 6.90106 47.104 7.06481C47.501 7.2298 47.8242 7.45309 48.0583 7.72849L47.5264 8.25198C47.118 7.78183 46.562 7.54985 45.8508 7.54985C45.2096 7.54985 44.6535 7.76818 44.1815 8.20857C43.7146 8.65019 43.4805 9.22206 43.4805 9.92419C43.4805 10.6263 43.7146 11.2032 44.1815 11.6448C44.6535 12.0802 45.2096 12.3035 45.8508 12.3035C46.5315 12.3035 47.104 12.0802 47.5557 11.6398C47.8534 11.3483 48.0227 10.9464 48.0672 10.4328H45.8508V9.71579H48.8077C48.8433 9.87085 48.8535 10.021 48.8535 10.1661Z" fill="white" stroke="white" stroke-width="0.0407143" stroke-miterlimit="10"/>
<path d="M53.5447 7.68037H50.7673V9.56595H53.2712V10.283H50.7673V12.1685H53.5447V12.8992H49.981V6.94971H53.5447V7.68037Z" fill="white" stroke="white" stroke-width="0.0407143" stroke-miterlimit="10"/>
<path d="M56.8552 12.8992H56.0689V7.68037H54.3652V6.94971H58.5601V7.68037H56.8552V12.8992Z" fill="white" stroke="white" stroke-width="0.0407143" stroke-miterlimit="10"/>
<path d="M61.5959 12.8992V6.94971H62.381V12.8992H61.5959Z" fill="white" stroke="white" stroke-width="0.0407143" stroke-miterlimit="10"/>
<path d="M65.8608 12.8992H65.0808V7.68037H63.3708V6.94971H67.5708V7.68037H65.8608V12.8992Z" fill="white" stroke="white" stroke-width="0.0407143" stroke-miterlimit="10"/>
<path d="M75.5126 12.1335C74.9108 12.7352 74.1652 13.0354 73.2759 13.0354C72.3814 13.0354 71.6359 12.7352 71.0341 12.1335C70.4335 11.5331 70.1345 10.7963 70.1345 9.92419C70.1345 9.05211 70.4335 8.31525 71.0341 7.71484C71.6359 7.11319 72.3814 6.81299 73.2759 6.81299C74.1601 6.81299 74.9057 7.11319 75.5075 7.7198C76.1132 8.32517 76.4122 9.05708 76.4122 9.92419C76.4122 10.7963 76.1132 11.5331 75.5126 12.1335ZM71.6155 11.6349C72.0685 12.0802 72.6194 12.3035 73.2759 12.3035C73.9273 12.3035 74.4833 12.0802 74.9312 11.6349C75.3828 11.1895 75.6119 10.6176 75.6119 9.92419C75.6119 9.23075 75.3828 8.65887 74.9312 8.21353C74.4833 7.76818 73.9273 7.54489 73.2759 7.54489C72.6194 7.54489 72.0685 7.76818 71.6155 8.21353C71.1638 8.65887 70.9348 9.23075 70.9348 9.92419C70.9348 10.6176 71.1638 11.1895 71.6155 11.6349Z" fill="white" stroke="white" stroke-width="0.0407143" stroke-miterlimit="10"/>
<path d="M77.5151 12.8992V6.94971H78.4694L81.4364 11.5768H81.4708L81.4364 10.4331V6.94971H82.2215V12.8992H81.4021L78.2951 8.04384H78.2607L78.2951 9.19255V12.8992H77.5151Z" fill="white" stroke="white" stroke-width="0.0407143" stroke-miterlimit="10"/>
<path d="M69.9409 21.5874C67.5502 21.5874 65.5972 23.3613 65.5972 25.8089C65.5972 28.2365 67.5502 30.0291 69.9409 30.0291C72.3367 30.0291 74.2897 28.2365 74.2897 25.8089C74.2897 23.3613 72.3367 21.5874 69.9409 21.5874ZM69.9409 28.3668C68.6291 28.3668 67.5006 27.3111 67.5006 25.8089C67.5006 24.2867 68.6291 23.2497 69.9409 23.2497C71.2526 23.2497 72.3863 24.2867 72.3863 25.8089C72.3863 27.3111 71.2526 28.3668 69.9409 28.3668ZM60.4634 21.5874C58.0676 21.5874 56.1197 23.3613 56.1197 25.8089C56.1197 28.2365 58.0676 30.0291 60.4634 30.0291C62.8579 30.0291 64.8071 28.2365 64.8071 25.8089C64.8071 23.3613 62.8579 21.5874 60.4634 21.5874ZM60.4634 28.3668C59.1503 28.3668 58.018 27.3111 58.018 25.8089C58.018 24.2867 59.1503 23.2497 60.4634 23.2497C61.7751 23.2497 62.9037 24.2867 62.9037 25.8089C62.9037 27.3111 61.7751 28.3668 60.4634 28.3668ZM49.1855 22.8812V24.675H53.5788C53.4503 25.6774 53.1068 26.4142 52.5801 26.9278C51.9388 27.5481 50.94 28.2365 49.1855 28.2365C46.4818 28.2365 44.3647 26.1091 44.3647 23.473C44.3647 20.8369 46.4818 18.7094 49.1855 18.7094C50.6474 18.7094 51.7111 19.2664 52.4961 19.9884L53.7926 18.7243C52.6946 17.7021 51.234 16.9169 49.1855 16.9169C45.478 16.9169 42.3621 19.8581 42.3621 23.473C42.3621 27.0878 45.478 30.0291 49.1855 30.0291C51.1894 30.0291 52.6946 29.389 53.8778 28.1882C55.0904 27.006 55.4682 25.3437 55.4682 24.0014C55.4682 23.5846 55.4326 23.2013 55.369 22.8812H49.1855ZM95.3021 24.2719C94.9445 23.3278 93.8414 21.5874 91.5945 21.5874C89.368 21.5874 87.5142 23.2981 87.5142 25.8089C87.5142 28.1733 89.3489 30.0291 91.8083 30.0291C93.7969 30.0291 94.9445 28.8469 95.4166 28.1584L93.9407 27.1995C93.4483 27.9016 92.7778 28.3668 91.8083 28.3668C90.8451 28.3668 90.1542 27.9363 89.7115 27.0878L95.5018 24.7519L95.3021 24.2719ZM89.3985 25.6774C89.3489 24.0498 90.695 23.2162 91.6594 23.2162C92.4152 23.2162 93.0564 23.5846 93.2702 24.1118L89.3985 25.6774ZM84.6922 29.7723H86.5956V17.3672H84.6922V29.7723ZM81.575 22.5277H81.5114C81.0839 22.034 80.2683 21.5874 79.2352 21.5874C77.0672 21.5874 75.0849 23.4432 75.0849 25.8225C75.0849 28.1882 77.0672 30.0291 79.2352 30.0291C80.2683 30.0291 81.0839 29.5788 81.5114 29.0702H81.575V29.6755C81.575 31.2894 80.6907 32.1566 79.2644 32.1566C78.1015 32.1566 77.3801 31.3378 77.0824 30.6493L75.4271 31.3229C75.9043 32.4419 77.1677 33.8188 79.2644 33.8188C81.4961 33.8188 83.3791 32.5386 83.3791 29.4237V21.8442H81.575V22.5277ZM79.398 28.3668C78.0863 28.3668 76.9883 27.2962 76.9883 25.8225C76.9883 24.3351 78.0863 23.2497 79.398 23.2497C80.6907 23.2497 81.7099 24.3351 81.7099 25.8225C81.7099 27.2962 80.6907 28.3668 79.398 28.3668ZM104.213 17.3672H99.661V29.7723H101.559V25.072H104.213C106.322 25.072 108.389 23.5846 108.389 21.219C108.389 18.8545 106.317 17.3672 104.213 17.3672ZM104.263 23.3464H101.559V19.0927H104.263C105.68 19.0927 106.49 20.2402 106.49 21.219C106.49 22.1791 105.68 23.3464 104.263 23.3464ZM115.998 21.5638C114.626 21.5638 113.2 22.1543 112.613 23.463L114.298 24.1515C114.66 23.463 115.327 23.2398 116.032 23.2398C117.017 23.2398 118.016 23.8166 118.031 24.8351V24.9653C117.687 24.7718 116.952 24.4852 116.047 24.4852C114.233 24.4852 112.384 25.459 112.384 27.2764C112.384 28.9387 113.87 30.0092 115.541 30.0092C116.818 30.0092 117.523 29.4473 117.966 28.7935H118.031V29.7524H119.864V24.9938C119.864 22.7944 118.18 21.5638 115.998 21.5638ZM115.769 28.3618C115.148 28.3618 114.283 28.0616 114.283 27.3111C114.283 26.351 115.361 25.9825 116.295 25.9825C117.131 25.9825 117.523 26.1624 118.031 26.3993C117.882 27.5481 116.868 28.3618 115.769 28.3618ZM126.544 21.8355L124.362 27.2131H124.297L122.041 21.8355H119.994L123.383 29.3505L121.45 33.5323H123.433L128.656 21.8355H126.544ZM109.432 29.7723H111.336V17.3672H109.432V29.7723Z" fill="white"/>
<defs>
<linearGradient id="paint0_linear_234_475" x1="22.7784" y1="31.0526" x2="6.12874" y2="13.976" gradientUnits="userSpaceOnUse">
<stop stop-color="#00A0FF"/>
<stop offset="0.0066" stop-color="#00A1FF"/>
<stop offset="0.2601" stop-color="#00BEFF"/>
<stop offset="0.5122" stop-color="#00D2FF"/>
<stop offset="0.7604" stop-color="#00DFFF"/>
<stop offset="1" stop-color="#00E3FF"/>
</linearGradient>
<linearGradient id="paint1_linear_234_475" x1="35.0278" y1="19.8468" x2="10.3989" y2="19.8468" gradientUnits="userSpaceOnUse">
<stop stop-color="#FFE000"/>
<stop offset="0.4087" stop-color="#FFBD00"/>
<stop offset="0.7754" stop-color="#FFA500"/>
<stop offset="1" stop-color="#FF9C00"/>
</linearGradient>
<linearGradient id="paint2_linear_234_475" x1="25.8597" y1="17.5697" x2="3.28135" y2="-5.58761" gradientUnits="userSpaceOnUse">
<stop stop-color="#FF3A44"/>
<stop offset="1" stop-color="#C31162"/>
</linearGradient>
<linearGradient id="paint3_linear_234_475" x1="8.01696" y1="39.5215" x2="18.0992" y2="29.1808" gradientUnits="userSpaceOnUse">
<stop stop-color="#32A071"/>
<stop offset="0.0685" stop-color="#2DA771"/>
<stop offset="0.4762" stop-color="#15CF74"/>
<stop offset="0.8009" stop-color="#06E775"/>
<stop offset="1" stop-color="#00F076"/>
</linearGradient>
</defs>
</svg>
