<svg width="138" height="40" viewBox="0 0 138 40" fill="none" xmlns="http://www.w3.org/2000/svg">
<path d="M132.321 39.6963H5.08928C2.29145 39.6963 0 37.4621 0 34.7342V4.96193C0 2.23404 2.29145 -0.000127792 5.08928 -0.000127792H132.321C135.119 -0.000127792 137.411 2.23404 137.411 4.96193V34.7342C137.411 37.4621 135.119 39.6963 132.321 39.6963Z" fill="black"/>
<path d="M132.321 0.795039C134.678 0.795039 136.595 2.66449 136.595 4.96193V34.7342C136.595 37.0317 134.678 38.9011 132.321 38.9011H5.08928C2.73295 38.9011 0.815558 37.0317 0.815558 34.7342V4.96193C0.815558 2.66449 2.73295 0.795039 5.08928 0.795039H132.321ZM132.321 -0.000127792H5.08928C2.29145 -0.000127792 0 2.23404 0 4.96193V34.7342C0 37.4621 2.29145 39.6963 5.08928 39.6963H132.321C135.119 39.6963 137.411 37.4621 137.411 34.7342V4.96193C137.411 2.23404 135.119 -0.000127792 132.321 -0.000127792Z" fill="#A6A6A6"/>
<path d="M9.85802 7.48132C9.55902 7.78648 9.38599 8.2616 9.38599 8.87689V30.8241C9.38599 31.4393 9.55902 31.9145 9.85802 32.2196L9.93181 32.2866L22.5456 19.9931V19.7029L9.93181 7.40937L9.85802 7.48132Z" fill="white"/>
<path d="M28.2722 24.0933L24.0723 19.9934V19.7031L28.2773 15.6032L28.3714 15.6565L33.3513 18.4192C34.7725 19.2032 34.7725 20.4933 33.3513 21.2823L28.3714 24.0399L28.2722 24.0933Z" fill="white"/>
<path d="M27.6081 24.8032L23.3089 20.6115L10.6213 32.9831C11.0934 33.4669 11.8631 33.5253 12.7385 33.0415L27.6081 24.8032Z" fill="white"/>
<path d="M27.6081 14.8928L12.7385 6.65454C11.8631 6.1757 11.0934 6.234 10.6213 6.7178L23.3089 19.0845L27.6081 14.8928Z" fill="white"/>
<path d="M48.2641 10.1661C48.2641 10.9948 48.0097 11.6584 47.5084 12.1534C46.932 12.7402 46.1813 13.0354 45.2614 13.0354C44.3823 13.0354 43.6316 12.7352 43.0158 12.1435C42.3987 11.5431 42.0908 10.8062 42.0908 9.92419C42.0908 9.04219 42.3987 8.30533 43.0158 7.70988C43.6316 7.11319 44.3823 6.81299 45.2614 6.81299C45.6991 6.81299 46.1164 6.90106 46.5147 7.06481C46.9116 7.2298 47.2348 7.45309 47.4689 7.72849L46.9371 8.25198C46.5287 7.78183 45.9727 7.54985 45.2614 7.54985C44.6202 7.54985 44.0642 7.76818 43.5922 8.20857C43.1252 8.65019 42.8911 9.22206 42.8911 9.92419C42.8911 10.6263 43.1252 11.2032 43.5922 11.6448C44.0642 12.0802 44.6202 12.3035 45.2614 12.3035C45.9421 12.3035 46.5147 12.0802 46.9664 11.6398C47.2641 11.3483 47.4333 10.9464 47.4778 10.4328H45.2614V9.71579H48.2183C48.2539 9.87085 48.2641 10.021 48.2641 10.1661Z" fill="white" stroke="white" stroke-width="0.0407143" stroke-miterlimit="10"/>
<path d="M52.9554 7.68037H50.1779V9.56595H52.6818V10.283H50.1779V12.1685H52.9554V12.8992H49.3916V6.94971H52.9554V7.68037Z" fill="white" stroke="white" stroke-width="0.0407143" stroke-miterlimit="10"/>
<path d="M56.2658 12.8992H55.4795V7.68037H53.7759V6.94971H57.9707V7.68037H56.2658V12.8992Z" fill="white" stroke="white" stroke-width="0.0407143" stroke-miterlimit="10"/>
<path d="M61.0066 12.8992V6.94971H61.7916V12.8992H61.0066Z" fill="white" stroke="white" stroke-width="0.0407143" stroke-miterlimit="10"/>
<path d="M65.2714 12.8992H64.4915V7.68037H62.7815V6.94971H66.9814V7.68037H65.2714V12.8992Z" fill="white" stroke="white" stroke-width="0.0407143" stroke-miterlimit="10"/>
<path d="M74.9233 12.1335C74.3215 12.7352 73.5759 13.0354 72.6865 13.0354C71.7921 13.0354 71.0465 12.7352 70.4447 12.1335C69.8442 11.5331 69.5452 10.7963 69.5452 9.92419C69.5452 9.05211 69.8442 8.31525 70.4447 7.71484C71.0465 7.11319 71.7921 6.81299 72.6865 6.81299C73.5708 6.81299 74.3164 7.11319 74.9182 7.7198C75.5238 8.32517 75.8228 9.05708 75.8228 9.92419C75.8228 10.7963 75.5238 11.5331 74.9233 12.1335ZM71.0261 11.6349C71.4791 12.0802 72.03 12.3035 72.6865 12.3035C73.338 12.3035 73.894 12.0802 74.3418 11.6349C74.7935 11.1895 75.0225 10.6176 75.0225 9.92419C75.0225 9.23075 74.7935 8.65887 74.3418 8.21353C73.894 7.76818 73.338 7.54489 72.6865 7.54489C72.03 7.54489 71.4791 7.76818 71.0261 8.21353C70.5745 8.65887 70.3455 9.23075 70.3455 9.92419C70.3455 10.6176 70.5745 11.1895 71.0261 11.6349Z" fill="white" stroke="white" stroke-width="0.0407143" stroke-miterlimit="10"/>
<path d="M76.9258 12.8992V6.94971H77.88L80.8471 11.5768H80.8814L80.8471 10.4331V6.94971H81.6321V12.8992H80.8127L77.7057 8.04384H77.6714L77.7057 9.19255V12.8992H76.9258Z" fill="white" stroke="white" stroke-width="0.0407143" stroke-miterlimit="10"/>
<path d="M69.3515 21.5874C66.9608 21.5874 65.0078 23.3613 65.0078 25.8089C65.0078 28.2365 66.9608 30.0291 69.3515 30.0291C71.7473 30.0291 73.7003 28.2365 73.7003 25.8089C73.7003 23.3613 71.7473 21.5874 69.3515 21.5874ZM69.3515 28.3668C68.0398 28.3668 66.9112 27.3111 66.9112 25.8089C66.9112 24.2867 68.0398 23.2497 69.3515 23.2497C70.6633 23.2497 71.7969 24.2867 71.7969 25.8089C71.7969 27.3111 70.6633 28.3668 69.3515 28.3668ZM59.874 21.5874C57.4782 21.5874 55.5303 23.3613 55.5303 25.8089C55.5303 28.2365 57.4782 30.0291 59.874 30.0291C62.2685 30.0291 64.2177 28.2365 64.2177 25.8089C64.2177 23.3613 62.2685 21.5874 59.874 21.5874ZM59.874 28.3668C58.561 28.3668 57.4286 27.3111 57.4286 25.8089C57.4286 24.2867 58.561 23.2497 59.874 23.2497C61.1858 23.2497 62.3143 24.2867 62.3143 25.8089C62.3143 27.3111 61.1858 28.3668 59.874 28.3668ZM48.5962 22.8812V24.675H52.9895C52.861 25.6774 52.5175 26.4142 51.9907 26.9278C51.3495 27.5481 50.3507 28.2365 48.5962 28.2365C45.8925 28.2365 43.7753 26.1091 43.7753 23.473C43.7753 20.8369 45.8925 18.7094 48.5962 18.7094C50.0581 18.7094 51.1217 19.2664 51.9067 19.9884L53.2032 18.7243C52.1052 17.7021 50.6446 16.9169 48.5962 16.9169C44.8886 16.9169 41.7727 19.8581 41.7727 23.473C41.7727 27.0878 44.8886 30.0291 48.5962 30.0291C50.6001 30.0291 52.1052 29.389 53.2885 28.1882C54.501 27.006 54.8789 25.3437 54.8789 24.0014C54.8789 23.5846 54.8433 23.2013 54.7796 22.8812H48.5962ZM94.7127 24.2719C94.3552 23.3278 93.2521 21.5874 91.0052 21.5874C88.7786 21.5874 86.9248 23.2981 86.9248 25.8089C86.9248 28.1733 88.7595 30.0291 91.2189 30.0291C93.2075 30.0291 94.3552 28.8469 94.8272 28.1584L93.3513 27.1995C92.8589 27.9016 92.1884 28.3668 91.2189 28.3668C90.2558 28.3668 89.5649 27.9363 89.1221 27.0878L94.9125 24.7519L94.7127 24.2719ZM88.8091 25.6774C88.7595 24.0498 90.1056 23.2162 91.07 23.2162C91.8258 23.2162 92.4671 23.5846 92.6808 24.1118L88.8091 25.6774ZM84.1028 29.7723H86.0062V17.3672H84.1028V29.7723ZM80.9856 22.5277H80.922C80.4945 22.034 79.679 21.5874 78.6458 21.5874C76.4778 21.5874 74.4955 23.4432 74.4955 25.8225C74.4955 28.1882 76.4778 30.0291 78.6458 30.0291C79.679 30.0291 80.4945 29.5788 80.922 29.0702H80.9856V29.6755C80.9856 31.2894 80.1014 32.1566 78.6751 32.1566C77.5122 32.1566 76.7908 31.3378 76.4931 30.6493L74.8378 31.3229C75.3149 32.4419 76.5783 33.8188 78.6751 33.8188C80.9067 33.8188 82.7898 32.5386 82.7898 29.4237V21.8442H80.9856V22.5277ZM78.8087 28.3668C77.4969 28.3668 76.3989 27.2962 76.3989 25.8225C76.3989 24.3351 77.4969 23.2497 78.8087 23.2497C80.1014 23.2497 81.1205 24.3351 81.1205 25.8225C81.1205 27.2962 80.1014 28.3668 78.8087 28.3668ZM103.624 17.3672H99.0717V29.7723H100.97V25.072H103.624C105.732 25.072 107.8 23.5846 107.8 21.219C107.8 18.8545 105.727 17.3672 103.624 17.3672ZM103.674 23.3464H100.97V19.0927H103.674C105.091 19.0927 105.9 20.2402 105.9 21.219C105.9 22.1791 105.091 23.3464 103.674 23.3464ZM115.408 21.5638C114.037 21.5638 112.61 22.1543 112.024 23.463L113.708 24.1515C114.071 23.463 114.738 23.2398 115.443 23.2398C116.427 23.2398 117.426 23.8166 117.441 24.8351V24.9653C117.098 24.7718 116.363 24.4852 115.458 24.4852C113.644 24.4852 111.795 25.459 111.795 27.2764C111.795 28.9387 113.281 30.0092 114.952 30.0092C116.229 30.0092 116.934 29.4473 117.377 28.7935H117.441V29.7524H119.275V24.9938C119.275 22.7944 117.59 21.5638 115.408 21.5638ZM115.179 28.3618C114.558 28.3618 113.693 28.0616 113.693 27.3111C113.693 26.351 114.772 25.9825 115.706 25.9825C116.542 25.9825 116.934 26.1624 117.441 26.3993C117.293 27.5481 116.279 28.3618 115.179 28.3618ZM125.955 21.8355L123.773 27.2131H123.708L121.452 21.8355H119.405L122.794 29.3505L120.86 33.5323H122.844L128.067 21.8355H125.955ZM108.843 29.7723H110.746V17.3672H108.843V29.7723Z" fill="white"/>
</svg>
